<svg width="136" height="94" viewBox="0 0 136 94" fill="none" xmlns="http://www.w3.org/2000/svg">
<rect x="1" y="1" width="134" height="92" rx="5" fill="white"/>
<rect x="1" y="1" width="134" height="92" rx="5" stroke="#9D9B9D" stroke-width="2"/>
<path d="M33.0156 71.3594H36.0469L39.25 79.1797H39.3828L42.5938 71.3594H45.6484V83H43.2344V75.4219H43.1484L40.125 82.9453H38.4922L35.5 75.4062H35.3984V83H33.0156V71.3594ZM50.1172 83.1641C49.2839 83.1641 48.5911 82.9479 48.0391 82.5156C47.4922 82.0781 47.2188 81.4271 47.2188 80.5625C47.2188 79.9115 47.3698 79.401 47.6719 79.0312C47.9792 78.6562 48.3828 78.3828 48.8828 78.2109C49.3828 78.0339 49.9193 77.9193 50.4922 77.8672C51.2526 77.7943 51.7943 77.7188 52.1172 77.6406C52.4453 77.5573 52.6094 77.375 52.6094 77.0938V77.0547C52.6094 76.6953 52.4948 76.4167 52.2656 76.2188C52.0365 76.0208 51.7057 75.9219 51.2734 75.9219C50.8411 75.9219 50.487 76.0156 50.2109 76.2031C49.9401 76.3906 49.7604 76.6302 49.6719 76.9219L47.4688 76.5703C47.6771 75.8099 48.1146 75.2188 48.7812 74.7969C49.4531 74.3698 50.2865 74.1562 51.2812 74.1562C51.9271 74.1562 52.5339 74.2578 53.1016 74.4609C53.6745 74.6641 54.138 74.9844 54.4922 75.4219C54.8464 75.8542 55.0234 76.4167 55.0234 77.1094V83H52.7344V81.7812H52.6641C52.4505 82.1927 52.1328 82.526 51.7109 82.7812C51.2943 83.0365 50.763 83.1641 50.1172 83.1641ZM49.5234 80.4844C49.5234 80.8177 49.6432 81.0703 49.8828 81.2422C50.1276 81.4089 50.4349 81.4922 50.8047 81.4922C51.3359 81.4922 51.7708 81.3385 52.1094 81.0312C52.4531 80.724 52.625 80.3411 52.625 79.8828V78.9531C52.5312 79.0156 52.3828 79.0729 52.1797 79.125C51.9818 79.1771 51.7708 79.2214 51.5469 79.2578C51.3229 79.2891 51.1224 79.3177 50.9453 79.3438C50.5182 79.4062 50.1745 79.5286 49.9141 79.7109C49.6536 79.888 49.5234 80.1458 49.5234 80.4844ZM59.3906 77.9531V83H56.9688V74.2656H59.3516V75.8203H59.4375C59.6354 75.3099 59.9505 74.9062 60.3828 74.6094C60.8151 74.3073 61.3542 74.1562 62 74.1562C62.9115 74.1562 63.6406 74.4505 64.1875 75.0391C64.7396 75.6224 65.0156 76.4245 65.0156 77.4453V83H62.5938V77.875C62.5938 77.3385 62.4557 76.9193 62.1797 76.6172C61.9089 76.3151 61.5312 76.1641 61.0469 76.1641C60.5573 76.1641 60.1589 76.3229 59.8516 76.6406C59.5443 76.9531 59.3906 77.3906 59.3906 77.9531ZM69.4453 83.1641C68.612 83.1641 67.9193 82.9479 67.3672 82.5156C66.8203 82.0781 66.5469 81.4271 66.5469 80.5625C66.5469 79.9115 66.6979 79.401 67 79.0312C67.3073 78.6562 67.7109 78.3828 68.2109 78.2109C68.7109 78.0339 69.2474 77.9193 69.8203 77.8672C70.5807 77.7943 71.1224 77.7188 71.4453 77.6406C71.7734 77.5573 71.9375 77.375 71.9375 77.0938V77.0547C71.9375 76.6953 71.8229 76.4167 71.5938 76.2188C71.3646 76.0208 71.0339 75.9219 70.6016 75.9219C70.1693 75.9219 69.8151 76.0156 69.5391 76.2031C69.2682 76.3906 69.0885 76.6302 69 76.9219L66.7969 76.5703C67.0052 75.8099 67.4427 75.2188 68.1094 74.7969C68.7812 74.3698 69.6146 74.1562 70.6094 74.1562C71.2552 74.1562 71.862 74.2578 72.4297 74.4609C73.0026 74.6641 73.4661 74.9844 73.8203 75.4219C74.1745 75.8542 74.3516 76.4167 74.3516 77.1094V83H72.0625V81.7812H71.9922C71.7786 82.1927 71.4609 82.526 71.0391 82.7812C70.6224 83.0365 70.0911 83.1641 69.4453 83.1641ZM68.8516 80.4844C68.8516 80.8177 68.9714 81.0703 69.2109 81.2422C69.4557 81.4089 69.763 81.4922 70.1328 81.4922C70.6641 81.4922 71.099 81.3385 71.4375 81.0312C71.7812 80.724 71.9531 80.3411 71.9531 79.8828V78.9531C71.8594 79.0156 71.7109 79.0729 71.5078 79.125C71.3099 79.1771 71.099 79.2214 70.875 79.2578C70.651 79.2891 70.4505 79.3177 70.2734 79.3438C69.8464 79.4062 69.5026 79.5286 69.2422 79.7109C68.9818 79.888 68.8516 80.1458 68.8516 80.4844ZM80.2109 86.4531C79.0339 86.4531 78.1094 86.2188 77.4375 85.75C76.7708 85.2865 76.3672 84.7083 76.2266 84.0156L78.4609 83.7188C78.5599 83.9844 78.75 84.2161 79.0312 84.4141C79.3177 84.612 79.7292 84.7109 80.2656 84.7109C80.7917 84.7109 81.2266 84.5833 81.5703 84.3281C81.9141 84.0781 82.0859 83.6536 82.0859 83.0547V81.4531H81.9766C81.8203 81.8177 81.5391 82.1458 81.1328 82.4375C80.7318 82.7292 80.1823 82.875 79.4844 82.875C78.8333 82.875 78.2396 82.724 77.7031 82.4219C77.1667 82.1146 76.7396 81.6458 76.4219 81.0156C76.1042 80.3854 75.9453 79.5885 75.9453 78.625C75.9453 77.6302 76.1068 76.8021 76.4297 76.1406C76.7578 75.4792 77.1901 74.9844 77.7266 74.6562C78.263 74.3229 78.8516 74.1562 79.4922 74.1562C79.9766 74.1562 80.3854 74.2396 80.7188 74.4062C81.0521 74.5677 81.3203 74.7708 81.5234 75.0156C81.7318 75.2604 81.8906 75.5026 82 75.7422H82.0938V74.2656H84.4688V83.0938C84.4688 83.8333 84.2865 84.4531 83.9219 84.9531C83.5573 85.4531 83.0547 85.8281 82.4141 86.0781C81.7786 86.3281 81.0443 86.4531 80.2109 86.4531ZM78.4219 78.6094C78.4219 79.3594 78.5781 79.9557 78.8906 80.3984C79.2083 80.8359 79.6641 81.0547 80.2578 81.0547C80.8411 81.0547 81.2917 80.8385 81.6094 80.4062C81.9323 79.974 82.0938 79.375 82.0938 78.6094C82.0938 77.8438 81.9349 77.2318 81.6172 76.7734C81.2995 76.3099 80.8464 76.0781 80.2578 76.0781C79.6589 76.0781 79.2031 76.3151 78.8906 76.7891C78.5781 77.2578 78.4219 77.8646 78.4219 78.6094ZM90.3828 83.1719C89.487 83.1719 88.7161 82.9896 88.0703 82.625C87.4245 82.2604 86.9271 81.7422 86.5781 81.0703C86.2292 80.3932 86.0547 79.5938 86.0547 78.6719C86.0547 77.776 86.2266 76.9896 86.5703 76.3125C86.9193 75.6354 87.4089 75.1068 88.0391 74.7266C88.6693 74.3464 89.4115 74.1562 90.2656 74.1562C91.0365 74.1562 91.7318 74.3203 92.3516 74.6484C92.9766 74.9766 93.4714 75.4688 93.8359 76.125C94.2057 76.7812 94.3906 77.6042 94.3906 78.5938V79.25H88.4375C88.4635 79.9115 88.6562 80.4297 89.0156 80.8047C89.375 81.1797 89.8438 81.3672 90.4219 81.3672C90.8229 81.3672 91.1667 81.2812 91.4531 81.1094C91.7448 80.9375 91.9531 80.6875 92.0781 80.3594L94.3125 80.5078C94.1406 81.3099 93.7109 81.9557 93.0234 82.4453C92.3411 82.9297 91.4609 83.1719 90.3828 83.1719ZM88.4531 77.7578H92.0703C92.013 77.2057 91.8359 76.7682 91.5391 76.4453C91.2422 76.1224 90.8255 75.9609 90.2891 75.9609C89.7474 75.9609 89.3177 76.1302 89 76.4688C88.6875 76.8021 88.5052 77.2318 88.4531 77.7578ZM95.9844 83V74.2656H98.3281V75.7969H98.4219C98.5781 75.2552 98.8438 74.8464 99.2188 74.5703C99.5938 74.2891 100.026 74.1484 100.516 74.1484C100.635 74.1484 100.766 74.1562 100.906 74.1719C101.047 74.1875 101.169 74.2083 101.273 74.2344V76.375C101.159 76.3385 101 76.3099 100.797 76.2891C100.599 76.263 100.417 76.25 100.25 76.25C99.7188 76.25 99.2786 76.4193 98.9297 76.7578C98.5807 77.0911 98.4062 77.526 98.4062 78.0625V83H95.9844Z" fill="#9C6D9D"/>
<path d="M60.4408 37.5477C58.4276 35.6859 57.4211 33.3989 57.4211 30.6866C57.4211 27.9744 58.4276 25.6874 60.4408 23.8256C62.4539 21.9638 64.9269 21.0329 67.8596 21.0329C70.7924 21.0329 73.2654 21.9638 75.2785 23.8256C77.2917 25.6874 78.2982 27.9744 78.2982 30.6866C78.2982 33.3989 77.2917 35.6859 75.2785 37.5477C73.2654 39.4095 70.7924 40.3404 67.8596 40.3404C64.9269 40.3404 62.4539 39.4095 60.4408 37.5477ZM71.0658 33.6517C71.9108 32.8702 72.3333 31.8818 72.3333 30.6866C72.3333 29.4914 71.9108 28.503 71.0658 27.7215C70.2208 26.94 69.152 26.5493 67.8596 26.5493C66.5673 26.5493 65.4985 26.94 64.6535 27.7215C63.8085 28.503 63.386 29.4914 63.386 30.6866C63.386 31.8818 63.8085 32.8702 64.6535 33.6517C65.4985 34.4332 66.5673 34.8239 67.8596 34.8239C69.152 34.8239 70.2208 34.4332 71.0658 33.6517ZM67.8596 65.1643C60.9503 63.5554 55.2463 59.8892 50.7478 54.1659C46.2493 48.4426 44 42.0872 44 35.0998V18.2746L67.8596 10L91.7193 18.2746V35.0998C91.7193 42.0872 89.47 48.4426 84.9715 54.1659C80.473 59.8892 74.769 63.5554 67.8596 65.1643ZM67.8596 15.8612L49.9649 22.0672V35.0998C49.9649 37.5822 50.3377 39.9956 51.0833 42.3401C51.8289 44.6846 52.848 46.8911 54.1404 48.9598C56.2281 47.9944 58.4152 47.2359 60.7018 46.6843C62.9883 46.1326 65.3743 45.8568 67.8596 45.8568C70.345 45.8568 72.731 46.1326 75.0175 46.6843C77.3041 47.2359 79.4912 47.9944 81.5789 48.9598C82.8713 46.8911 83.8904 44.6846 84.636 42.3401C85.3816 39.9956 85.7544 37.5822 85.7544 35.0998V22.0672L67.8596 15.8612ZM62.6404 51.9249C60.9503 52.2926 59.3348 52.7983 57.7939 53.4419C59.2354 54.821 60.8012 56.0162 62.4912 57.0276C64.1813 58.0389 65.9708 58.8204 67.8596 59.3721C69.7485 58.8204 71.538 58.0389 73.2281 57.0276C74.9181 56.0162 76.4839 54.821 77.9254 53.4419C76.3845 52.7983 74.769 52.2926 73.0789 51.9249C71.3889 51.5571 69.6491 51.3732 67.8596 51.3732C66.0702 51.3732 64.3304 51.5571 62.6404 51.9249Z" fill="#9C6D9D"/>
</svg>
