<svg width="126" height="94" viewBox="0 0 126 94" fill="none" xmlns="http://www.w3.org/2000/svg">
<rect x="1" y="1" width="124" height="92" rx="5" fill="white"/>
<rect x="1" y="1" width="124" height="92" rx="5" stroke="#9D9B9D" stroke-width="2"/>
<path d="M52.2031 72.3594H54.6562V79.9062C54.6562 80.7552 54.4557 81.5 54.0547 82.1406C53.6536 82.776 53.0911 83.2708 52.3672 83.625C51.6432 83.9792 50.7995 84.1562 49.8359 84.1562C48.8672 84.1562 48.0208 83.9792 47.2969 83.625C46.5781 83.2708 46.0182 82.776 45.6172 82.1406C45.2161 81.5 45.0156 80.7552 45.0156 79.9062V72.3594H47.4688V79.7031C47.4688 80.3698 47.6849 80.9193 48.1172 81.3516C48.5495 81.7786 49.1224 81.9922 49.8359 81.9922C50.5495 81.9922 51.1224 81.7786 51.5547 81.3516C51.987 80.9193 52.2031 80.3698 52.2031 79.7031V72.3594ZM63.8906 77.7578L61.6875 77.8906C61.625 77.6146 61.4688 77.3776 61.2188 77.1797C60.974 76.9766 60.6406 76.875 60.2188 76.875C59.8438 76.875 59.5286 76.9531 59.2734 77.1094C59.0182 77.2656 58.8906 77.474 58.8906 77.7344C58.8906 77.9427 58.974 78.1198 59.1406 78.2656C59.3073 78.4115 59.5911 78.5286 59.9922 78.6172L61.5781 78.9297C63.2552 79.263 64.0938 80.0495 64.0938 81.2891C64.0938 81.8672 63.9271 82.3724 63.5938 82.8047C63.2604 83.237 62.8021 83.5729 62.2188 83.8125C61.6354 84.0521 60.9661 84.1719 60.2109 84.1719C59.0547 84.1719 58.1354 83.9323 57.4531 83.4531C56.7708 82.9688 56.3698 82.3099 56.25 81.4766L58.625 81.3516C58.7865 82.0703 59.3177 82.4297 60.2188 82.4297C60.6406 82.4297 60.9818 82.3464 61.2422 82.1797C61.5026 82.013 61.6328 81.8021 61.6328 81.5469C61.6328 81.1146 61.2604 80.8229 60.5156 80.6719L59.0078 80.3594C57.3255 80.0208 56.4844 79.1927 56.4844 77.875C56.4844 77.0312 56.8203 76.3672 57.4922 75.8828C58.1693 75.3984 59.0651 75.1562 60.1797 75.1562C61.2839 75.1562 62.1536 75.3906 62.7891 75.8594C63.4245 76.3229 63.7917 76.9557 63.8906 77.7578ZM69.6016 84.1719C68.7057 84.1719 67.9349 83.9896 67.2891 83.625C66.6432 83.2604 66.1458 82.7422 65.7969 82.0703C65.4479 81.3932 65.2734 80.5938 65.2734 79.6719C65.2734 78.776 65.4453 77.9896 65.7891 77.3125C66.138 76.6354 66.6276 76.1068 67.2578 75.7266C67.888 75.3464 68.6302 75.1562 69.4844 75.1562C70.2552 75.1562 70.9505 75.3203 71.5703 75.6484C72.1953 75.9766 72.6901 76.4688 73.0547 77.125C73.4245 77.7812 73.6094 78.6042 73.6094 79.5938V80.25H67.6562C67.6823 80.9115 67.875 81.4297 68.2344 81.8047C68.5938 82.1797 69.0625 82.3672 69.6406 82.3672C70.0417 82.3672 70.3854 82.2812 70.6719 82.1094C70.9635 81.9375 71.1719 81.6875 71.2969 81.3594L73.5312 81.5078C73.3594 82.3099 72.9297 82.9557 72.2422 83.4453C71.5599 83.9297 70.6797 84.1719 69.6016 84.1719ZM67.6719 78.7578H71.2891C71.2318 78.2057 71.0547 77.7682 70.7578 77.4453C70.4609 77.1224 70.0443 76.9609 69.5078 76.9609C68.9661 76.9609 68.5365 77.1302 68.2188 77.4688C67.9062 77.8021 67.724 78.2318 67.6719 78.7578ZM75.2031 84V75.2656H77.5469V76.7969H77.6406C77.7969 76.2552 78.0625 75.8464 78.4375 75.5703C78.8125 75.2891 79.2448 75.1484 79.7344 75.1484C79.8542 75.1484 79.9844 75.1562 80.125 75.1719C80.2656 75.1875 80.388 75.2083 80.4922 75.2344V77.375C80.3776 77.3385 80.2188 77.3099 80.0156 77.2891C79.8177 77.263 79.6354 77.25 79.4688 77.25C78.9375 77.25 78.4974 77.4193 78.1484 77.7578C77.7995 78.0911 77.625 78.526 77.625 79.0625V84H75.2031Z" fill="#9C6D9D"/>
<path d="M54.4433 32.3308C52.1057 29.9974 50.9368 27.1923 50.9368 23.9155C50.9368 20.6387 52.1057 17.8336 54.4433 15.5002C56.7809 13.1667 59.5911 12 62.8737 12C66.1563 12 68.9664 13.1667 71.3041 15.5002C73.6417 17.8336 74.8105 20.6387 74.8105 23.9155C74.8105 27.1923 73.6417 29.9974 71.3041 32.3308C68.9664 34.6643 66.1563 35.831 62.8737 35.831C59.5911 35.831 56.7809 34.6643 54.4433 32.3308ZM39 59.662V51.3211C39 49.6331 39.4352 48.0816 40.3056 46.6666C41.176 45.2517 42.3324 44.1718 43.7747 43.4271C46.8584 41.888 49.9918 40.7337 53.175 39.9642C56.3582 39.1946 59.5911 38.8099 62.8737 38.8099C66.1563 38.8099 69.3892 39.1946 72.5724 39.9642C75.7555 40.7337 78.889 41.888 81.9726 43.4271C83.415 44.1718 84.5714 45.2517 85.4418 46.6666C86.3122 48.0816 86.7474 49.6331 86.7474 51.3211V59.662H39ZM44.9684 53.7042H80.7789V51.3211C80.7789 50.775 80.6422 50.2785 80.3686 49.8317C80.0951 49.3849 79.7345 49.0373 79.2868 48.7891C76.6011 47.4486 73.8904 46.4432 71.1549 45.773C68.4193 45.1027 65.6589 44.7676 62.8737 44.7676C60.0884 44.7676 57.328 45.1027 54.5925 45.773C51.857 46.4432 49.1463 47.4486 46.4605 48.7891C46.0129 49.0373 45.6523 49.3849 45.3787 49.8317C45.1052 50.2785 44.9684 50.775 44.9684 51.3211V53.7042ZM67.0889 28.1232C68.2577 26.9564 68.8421 25.5539 68.8421 23.9155C68.8421 22.2771 68.2577 20.8746 67.0889 19.7078C65.9201 18.5411 64.515 17.9577 62.8737 17.9577C61.2324 17.9577 59.8273 18.5411 58.6585 19.7078C57.4897 20.8746 56.9053 22.2771 56.9053 23.9155C56.9053 25.5539 57.4897 26.9564 58.6585 28.1232C59.8273 29.2899 61.2324 29.8732 62.8737 29.8732C64.515 29.8732 65.9201 29.2899 67.0889 28.1232Z" fill="#9C6D9D"/>
</svg>
